<svg width="294" height="51" viewBox="0 0 294 51" fill="none" xmlns="http://www.w3.org/2000/svg">
<path d="M0.000140637 49.792L18.8161 3.07201H24.8961L43.7761 49.792H37.2481L32.2561 37.184H11.4561L6.40014 49.792H0.000140637ZM18.8161 18.624L11.6481 36.672H32.0641L24.8961 18.624L21.8881 10.88L18.8161 18.624ZM47.2536 49.792V0.128006H53.3976V23.232L53.0776 28.672C53.8456 23.7227 55.6163 19.9467 58.3896 17.344C61.2056 14.7413 64.5336 13.44 68.3736 13.44C70.379 13.44 72.3416 13.8027 74.2616 14.528C76.2243 15.2533 77.9523 16.3627 79.4456 17.856C80.9816 19.3493 82.1976 21.248 83.0936 23.552C84.0323 25.856 84.5016 28.544 84.5016 31.616C84.5016 34.6027 84.0323 37.2693 83.0936 39.616C82.1976 41.9627 81.003 43.9253 79.5096 45.504C78.0163 47.04 76.267 48.2347 74.2616 49.088C72.2563 49.8987 70.1656 50.304 67.9896 50.304C63.467 50.304 60.011 48.896 57.6216 46.08C55.2323 43.2213 53.7176 39.4453 53.0776 34.752L53.3976 41.152V49.792H47.2536ZM66.1976 44.8C69.9523 44.8 72.939 43.6267 75.1576 41.28C77.3763 38.8907 78.4856 35.712 78.4856 31.744C78.4856 29.6533 78.1656 27.8187 77.5256 26.24C76.8856 24.6187 76.011 23.2747 74.9016 22.208C73.7923 21.0987 72.4696 20.2667 70.9336 19.712C69.4403 19.1573 67.819 18.88 66.0696 18.88C63.979 18.88 62.123 19.2213 60.5016 19.904C58.8803 20.544 57.515 21.44 56.4056 22.592C55.339 23.744 54.507 25.1307 53.9096 26.752C53.355 28.3307 53.0776 30.0373 53.0776 31.872C53.0776 35.6267 54.2083 38.72 56.4696 41.152C58.731 43.584 61.9736 44.8 66.1976 44.8ZM107.096 50.432C104.067 50.432 101.379 49.9413 99.0321 48.96C96.7281 47.9787 94.7868 46.656 93.2081 44.992C91.6721 43.328 90.4988 41.3653 89.6881 39.104C88.8775 36.8427 88.4721 34.432 88.4721 31.872C88.4721 29.3547 88.8775 26.9653 89.6881 24.704C90.5415 22.4427 91.7575 20.48 93.3361 18.816C94.9148 17.1093 96.8561 15.7653 99.1601 14.784C101.507 13.76 104.152 13.248 107.096 13.248C110.04 13.248 112.664 13.7387 114.968 14.72C117.315 15.7013 119.277 17.024 120.856 18.688C122.435 20.352 123.629 22.336 124.44 24.64C125.293 26.9013 125.72 29.312 125.72 31.872C125.72 34.3893 125.315 36.7787 124.504 39.04C123.736 41.3013 122.563 43.2853 120.984 44.992C119.448 46.656 117.507 47.9787 115.16 48.96C112.813 49.9413 110.125 50.432 107.096 50.432ZM107.096 44.8C111.235 44.8 114.349 43.584 116.44 41.152C118.573 38.6773 119.64 35.584 119.64 31.872C119.64 28.0747 118.552 24.96 116.376 22.528C114.2 20.096 111.107 18.88 107.096 18.88C105.091 18.88 103.299 19.2213 101.72 19.904C100.184 20.544 98.8828 21.44 97.8161 22.592C96.7495 23.744 95.9388 25.1307 95.3841 26.752C94.8295 28.3307 94.5521 30.0373 94.5521 31.872C94.5521 35.6267 95.6188 38.72 97.7521 41.152C99.8855 43.584 103 44.8 107.096 44.8ZM164.296 13.952V49.792H158.152V35.008C157.597 40.1707 156.061 44.0533 153.544 46.656C151.069 49.216 147.954 50.496 144.2 50.496C139.677 50.496 136.242 49.152 133.896 46.464C131.592 43.7333 130.44 40.1067 130.44 35.584V13.952H136.648V33.792C136.648 37.2907 137.458 40.0853 139.08 42.176C140.701 44.2667 143.389 45.312 147.144 45.312C150.216 45.312 152.712 44.3733 154.632 42.496C156.552 40.6187 157.725 37.76 158.152 33.92V13.952H164.296ZM191.171 43.712V49.472C190.403 49.7707 189.571 50.0053 188.675 50.176C187.779 50.3467 186.84 50.432 185.859 50.432C182.232 50.432 179.651 49.4933 178.115 47.616C176.579 45.696 175.811 42.816 175.811 38.976V19.584H168.259V13.952H175.811V3.52L181.571 3.8147e-06V13.952H191.171V19.584H181.571V37.888C181.571 40.3627 182.019 42.112 182.915 43.136C183.854 44.16 185.176 44.672 186.883 44.672C187.736 44.672 188.483 44.5867 189.123 44.416C189.806 44.2453 190.488 44.0107 191.171 43.712ZM246.125 3.07201H252.077V49.792H245.869V5.44001L240.813 20.48L230.893 49.792H230.445L220.461 20.48L215.341 5.37601V49.792H209.133V3.07201H215.149L226.349 36.16L230.701 48.832L234.925 36.16L246.125 3.07201ZM293.259 37.76C292.235 41.5147 290.251 44.5653 287.307 46.912C284.363 49.2587 280.48 50.432 275.659 50.432C272.501 50.432 269.749 49.9627 267.403 49.024C265.056 48.0853 263.115 46.8053 261.579 45.184C260.043 43.52 258.891 41.5573 258.123 39.296C257.397 37.0347 257.035 34.6027 257.035 32C257.035 29.4827 257.44 27.0933 258.251 24.832C259.104 22.528 260.299 20.5227 261.835 18.816C263.413 17.1093 265.355 15.7653 267.659 14.784C269.963 13.76 272.587 13.248 275.531 13.248C278.475 13.248 281.077 13.696 283.339 14.592C285.6 15.488 287.477 16.704 288.971 18.24C290.464 19.776 291.573 21.6107 292.299 23.744C293.067 25.8773 293.451 28.1813 293.451 30.656V31.936H263.115C263.115 35.6907 264.117 38.784 266.123 41.216C268.171 43.6053 271.264 44.8 275.403 44.8C278.773 44.8 281.397 44.0533 283.275 42.56C285.195 41.024 286.496 38.912 287.179 36.224L293.259 37.76ZM275.595 18.88C271.669 18.88 268.619 20.0747 266.443 22.464C264.309 24.8533 263.2 27.84 263.115 31.424H287.435V30.912C287.435 27.328 286.453 24.4267 284.491 22.208C282.528 19.9893 279.563 18.88 275.595 18.88Z" fill="black"/>
</svg>
