<svg width="654" height="76" viewBox="0 0 654 76" fill="none" xmlns="http://www.w3.org/2000/svg">
<path d="M0.396 75V4.92H48.012V13.464H9.708V39.672H43.212V40.44H9.708V75H0.396ZM76.9388 20.472C79.1788 20.472 81.2588 20.792 83.1788 21.432C85.0988 22.008 86.7628 22.776 88.1708 23.736L84.4268 32.952C82.8268 31.608 81.1948 30.648 79.5308 30.072C77.8668 29.432 75.8508 29.112 73.4828 29.112C70.3468 29.112 67.4668 30.168 64.8428 32.28C62.2828 34.328 60.6828 38.072 60.0428 43.512V75H50.8268V21.24H60.0428V42.456C60.6828 34.968 62.3148 29.432 64.9388 25.848C67.5628 22.264 71.5628 20.472 76.9388 20.472ZM115.184 75.96C110.64 75.96 106.608 75.224 103.088 73.752C99.6323 72.28 96.7203 70.296 94.3523 67.8C92.0483 65.304 90.2883 62.36 89.0723 58.968C87.8563 55.576 87.2483 51.96 87.2483 48.12C87.2483 44.344 87.8563 40.76 89.0723 37.368C90.3523 33.976 92.1763 31.032 94.5443 28.536C96.9123 25.976 99.8243 23.96 103.28 22.488C106.8 20.952 110.768 20.184 115.184 20.184C119.6 20.184 123.536 20.92 126.992 22.392C130.512 23.864 133.456 25.848 135.824 28.344C138.192 30.84 139.984 33.816 141.2 37.272C142.48 40.664 143.12 44.28 143.12 48.12C143.12 51.896 142.512 55.48 141.296 58.872C140.144 62.264 138.384 65.24 136.016 67.8C133.712 70.296 130.8 72.28 127.28 73.752C123.76 75.224 119.728 75.96 115.184 75.96ZM115.184 67.512C121.392 67.512 126.064 65.688 129.2 62.04C132.4 58.328 134 53.688 134 48.12C134 42.424 132.368 37.752 129.104 34.104C125.84 30.456 121.2 28.632 115.184 28.632C112.176 28.632 109.488 29.144 107.12 30.168C104.816 31.128 102.864 32.472 101.264 34.2C99.6643 35.928 98.4483 38.008 97.6163 40.44C96.7843 42.808 96.3683 45.368 96.3683 48.12C96.3683 53.752 97.9683 58.392 101.168 62.04C104.368 65.688 109.04 67.512 115.184 67.512ZM150.296 75V21.24H159.512V43.512C160.728 35.704 163.256 29.88 167.096 26.04C170.936 22.136 175.64 20.184 181.208 20.184C187.992 20.184 193.08 22.168 196.472 26.136C199.928 30.04 201.656 35.288 201.656 41.88V75H192.344V44.664C192.344 39.544 191.128 35.48 188.696 32.472C186.328 29.464 182.36 27.96 176.792 27.96C172.312 27.96 168.6 29.304 165.656 31.992C162.712 34.616 160.664 38.904 159.512 44.856V75H150.296ZM239.234 65.88V74.52C238.082 74.968 236.834 75.32 235.49 75.576C234.146 75.832 232.738 75.96 231.266 75.96C225.826 75.96 221.954 74.552 219.65 71.736C217.346 68.856 216.194 64.536 216.194 58.776V29.688H204.866V21.24H216.194V5.592L224.834 0.311995V21.24H239.234V29.688H224.834V57.144C224.834 60.856 225.506 63.48 226.85 65.016C228.258 66.552 230.242 67.32 232.802 67.32C234.082 67.32 235.202 67.192 236.162 66.936C237.186 66.68 238.21 66.328 239.234 65.88ZM239.005 46.2V45.432H270.493V46.2H239.005ZM276.959 75V4.92H326.495V13.464H286.271V39.192H319.295V39.96H286.271V66.168H326.687V75H276.959ZM333.858 75V21.24H343.074V43.512C344.29 35.704 346.818 29.88 350.658 26.04C354.498 22.136 359.202 20.184 364.77 20.184C371.554 20.184 376.642 22.168 380.034 26.136C383.49 30.04 385.218 35.288 385.218 41.88V75H375.906V44.664C375.906 39.544 374.69 35.48 372.258 32.472C369.89 29.464 365.922 27.96 360.354 27.96C355.874 27.96 352.162 29.304 349.218 31.992C346.274 34.616 344.226 38.904 343.074 44.856V75H333.858ZM392.123 48.12C392.123 43.704 392.859 39.8 394.331 36.408C395.803 32.952 397.691 30.04 399.995 27.672C402.363 25.304 405.051 23.512 408.059 22.296C411.131 21.08 414.235 20.472 417.371 20.472C423.131 20.472 427.931 22.36 431.771 26.136C435.675 29.848 438.171 35.384 439.259 42.744L438.779 35.064V0.503998H448.091V75H438.779V61.944L439.355 52.056C438.331 59.16 435.995 64.888 432.347 69.24C428.763 73.592 423.643 75.768 416.987 75.768C413.531 75.768 410.267 75.16 407.195 73.944C404.187 72.728 401.563 70.968 399.323 68.664C397.147 66.296 395.387 63.384 394.043 59.928C392.763 56.472 392.123 52.536 392.123 48.12ZM419.867 67.512C426.011 67.512 430.779 65.656 434.171 61.944C437.563 58.232 439.259 53.56 439.259 47.928C439.259 42.36 437.659 37.752 434.459 34.104C431.259 30.456 426.523 28.632 420.251 28.632C417.627 28.632 415.131 29.08 412.763 29.976C410.459 30.872 408.443 32.152 406.715 33.816C405.051 35.416 403.707 37.432 402.683 39.864C401.723 42.232 401.243 44.92 401.243 47.928C401.243 53.944 402.907 58.712 406.235 62.232C409.563 65.752 414.107 67.512 419.867 67.512ZM477.396 75V4.92H500.532C512.756 4.92 522.164 7.864 528.756 13.752C535.412 19.576 538.74 28.056 538.74 39.192C538.74 44.568 537.844 49.496 536.052 53.976C534.324 58.456 531.764 62.264 528.372 65.4C525.236 68.472 521.364 70.84 516.756 72.504C512.148 74.168 506.932 75 501.108 75H477.396ZM500.244 13.464H486.612V66.168H500.724C510.324 66.168 517.524 63.672 522.324 58.68C527.124 53.688 529.524 47.096 529.524 38.904C529.524 30.328 527.06 23.96 522.132 19.8C517.204 15.576 509.908 13.464 500.244 13.464ZM598.803 56.952C597.267 62.584 594.291 67.16 589.875 70.68C585.459 74.2 579.635 75.96 572.403 75.96C567.667 75.96 563.539 75.256 560.019 73.848C556.499 72.44 553.587 70.52 551.283 68.088C548.979 65.592 547.251 62.648 546.099 59.256C545.011 55.864 544.467 52.216 544.467 48.312C544.467 44.536 545.075 40.952 546.291 37.56C547.571 34.104 549.363 31.096 551.667 28.536C554.035 25.976 556.947 23.96 560.403 22.488C563.859 20.952 567.795 20.184 572.211 20.184C576.627 20.184 580.531 20.856 583.923 22.2C587.315 23.544 590.131 25.368 592.371 27.672C594.611 29.976 596.275 32.728 597.363 35.928C598.515 39.128 599.091 42.584 599.091 46.296V48.216H553.587C553.587 53.848 555.091 58.488 558.099 62.136C561.171 65.72 565.811 67.512 572.019 67.512C577.075 67.512 581.011 66.392 583.827 64.152C586.707 61.848 588.659 58.68 589.683 54.648L598.803 56.952ZM572.307 28.632C566.419 28.632 561.843 30.424 558.579 34.008C555.379 37.592 553.715 42.072 553.587 47.448H590.067V46.68C590.067 41.304 588.595 36.952 585.651 33.624C582.707 30.296 578.259 28.632 572.307 28.632ZM631.12 75H621.616L599.536 21.24H609.136L624.688 59.544L626.416 65.304L628.24 59.448L643.984 21.24H653.296L631.12 75Z" fill="black"/>
</svg>
