<svg width="807" height="98" viewBox="0 0 807 98" fill="none" xmlns="http://www.w3.org/2000/svg">
<path d="M26.84 75H16.856L0.536 4.92H10.328L26.264 74.04L37.496 32.568L30.104 4.92H30.968L37.112 28.152L37.976 31.608L38.744 28.152L44.888 4.92H45.752L38.36 32.568L49.592 74.04L65.528 4.92H75.32L59 75H49.016L38.744 36.792L37.976 33.624L37.112 36.888L26.84 75ZM127.928 56.952C126.392 62.584 123.416 67.16 119 70.68C114.584 74.2 108.76 75.96 101.528 75.96C96.792 75.96 92.664 75.256 89.144 73.848C85.624 72.44 82.712 70.52 80.408 68.088C78.104 65.592 76.376 62.648 75.224 59.256C74.136 55.864 73.592 52.216 73.592 48.312C73.592 44.536 74.2 40.952 75.416 37.56C76.696 34.104 78.488 31.096 80.792 28.536C83.16 25.976 86.072 23.96 89.528 22.488C92.984 20.952 96.92 20.184 101.336 20.184C105.752 20.184 109.656 20.856 113.048 22.2C116.44 23.544 119.256 25.368 121.496 27.672C123.736 29.976 125.4 32.728 126.488 35.928C127.64 39.128 128.216 42.584 128.216 46.296V48.216H82.712C82.712 53.848 84.216 58.488 87.224 62.136C90.296 65.72 94.936 67.512 101.144 67.512C106.2 67.512 110.136 66.392 112.952 64.152C115.832 61.848 117.784 58.68 118.808 54.648L127.928 56.952ZM101.432 28.632C95.544 28.632 90.968 30.424 87.704 34.008C84.504 37.592 82.84 42.072 82.712 47.448H119.192V46.68C119.192 41.304 117.72 36.952 114.776 33.624C111.832 30.296 107.384 28.632 101.432 28.632ZM135.514 75V0.503998H144.73V35.16L144.25 43.32C145.402 35.896 148.058 30.232 152.218 26.328C156.442 22.424 161.434 20.472 167.194 20.472C170.202 20.472 173.146 21.016 176.026 22.104C178.97 23.192 181.562 24.856 183.802 27.096C186.106 29.336 187.93 32.184 189.274 35.64C190.682 39.096 191.386 43.128 191.386 47.736C191.386 52.216 190.682 56.216 189.274 59.736C187.93 63.256 186.138 66.2 183.898 68.568C181.658 70.872 179.034 72.664 176.026 73.944C173.018 75.16 169.882 75.768 166.618 75.768C159.834 75.768 154.65 73.656 151.066 69.432C147.482 65.144 145.21 59.48 144.25 52.44L144.73 62.04V75H135.514ZM163.93 67.512C169.562 67.512 174.042 65.752 177.37 62.232C180.698 58.648 182.362 53.88 182.362 47.928C182.362 44.792 181.882 42.04 180.922 39.672C179.962 37.24 178.65 35.224 176.986 33.624C175.322 31.96 173.338 30.712 171.034 29.88C168.794 29.048 166.362 28.632 163.738 28.632C160.602 28.632 157.818 29.144 155.386 30.168C152.954 31.128 150.906 32.472 149.242 34.2C147.642 35.928 146.394 38.008 145.498 40.44C144.666 42.808 144.25 45.368 144.25 48.12C144.25 53.752 145.946 58.392 149.338 62.04C152.73 65.688 157.594 67.512 163.93 67.512ZM223.291 67.704C227.899 67.704 231.291 66.712 233.467 64.728C235.643 62.744 236.731 60.248 236.731 57.24C236.731 54.296 235.483 52.12 232.987 50.712C230.555 49.304 226.427 48.44 220.603 48.12C215.931 47.864 212.059 47.448 208.987 46.872C205.915 46.296 203.483 45.528 201.691 44.568C199.899 43.544 198.619 42.328 197.851 40.92C197.147 39.448 196.795 37.752 196.795 35.832C196.795 31.224 198.651 27.416 202.363 24.408C206.139 21.4 211.515 19.896 218.491 19.896C224.635 19.896 229.915 20.856 234.331 22.776C238.811 24.632 242.747 27.256 246.139 30.648L239.419 37.944C236.859 34.808 233.947 32.408 230.683 30.744C227.483 29.016 223.547 28.152 218.875 28.152C214.203 28.152 210.811 29.144 208.699 31.128C206.651 33.048 205.627 35.352 205.627 38.04C205.627 40.664 206.715 42.84 208.891 44.568C211.067 46.296 215.035 47.288 220.795 47.544C229.755 47.992 236.091 49.144 239.803 51C243.579 52.856 245.467 55.992 245.467 60.408C245.467 62.456 245.019 64.44 244.123 66.36C243.291 68.216 241.947 69.88 240.091 71.352C238.235 72.76 235.835 73.912 232.891 74.808C229.947 75.64 226.427 76.056 222.331 76.056C215.675 76.056 210.139 75.096 205.723 73.176C201.307 71.192 197.307 68.568 193.723 65.304L201.211 57.432C203.771 60.376 206.747 62.84 210.139 64.824C213.531 66.744 217.915 67.704 223.291 67.704ZM264.24 14.328V15.096H249.072V14.328H264.24ZM261.36 21.24V75H251.952V21.24H261.36ZM301.703 65.88V74.52C300.551 74.968 299.303 75.32 297.959 75.576C296.615 75.832 295.207 75.96 293.735 75.96C288.295 75.96 284.423 74.552 282.119 71.736C279.815 68.856 278.663 64.536 278.663 58.776V29.688H267.335V21.24H278.663V5.592L287.303 0.311995V21.24H301.703V29.688H287.303V57.144C287.303 60.856 287.975 63.48 289.319 65.016C290.727 66.552 292.711 67.32 295.271 67.32C296.551 67.32 297.671 67.192 298.631 66.936C299.655 66.68 300.679 66.328 301.703 65.88ZM357.803 56.952C356.267 62.584 353.291 67.16 348.875 70.68C344.459 74.2 338.635 75.96 331.403 75.96C326.667 75.96 322.539 75.256 319.019 73.848C315.499 72.44 312.587 70.52 310.283 68.088C307.979 65.592 306.251 62.648 305.099 59.256C304.011 55.864 303.467 52.216 303.467 48.312C303.467 44.536 304.075 40.952 305.291 37.56C306.571 34.104 308.363 31.096 310.667 28.536C313.035 25.976 315.947 23.96 319.403 22.488C322.859 20.952 326.795 20.184 331.211 20.184C335.627 20.184 339.531 20.856 342.923 22.2C346.315 23.544 349.131 25.368 351.371 27.672C353.611 29.976 355.275 32.728 356.363 35.928C357.515 39.128 358.091 42.584 358.091 46.296V48.216H312.587C312.587 53.848 314.091 58.488 317.099 62.136C320.171 65.72 324.811 67.512 331.019 67.512C336.075 67.512 340.011 66.392 342.827 64.152C345.707 61.848 347.659 58.68 348.683 54.648L357.803 56.952ZM331.307 28.632C325.419 28.632 320.843 30.424 317.579 34.008C314.379 37.592 312.715 42.072 312.587 47.448H349.067V46.68C349.067 41.304 347.595 36.952 344.651 33.624C341.707 30.296 337.259 28.632 331.307 28.632ZM384.896 75V4.92H408.032C420.256 4.92 429.664 7.864 436.256 13.752C442.912 19.576 446.24 28.056 446.24 39.192C446.24 44.568 445.344 49.496 443.552 53.976C441.824 58.456 439.264 62.264 435.872 65.4C432.736 68.472 428.864 70.84 424.256 72.504C419.648 74.168 414.432 75 408.608 75H384.896ZM407.744 13.464H394.112V66.168H408.224C417.824 66.168 425.024 63.672 429.824 58.68C434.624 53.688 437.024 47.096 437.024 38.904C437.024 30.328 434.56 23.96 429.632 19.8C424.704 15.576 417.408 13.464 407.744 13.464ZM506.303 56.952C504.767 62.584 501.791 67.16 497.375 70.68C492.959 74.2 487.135 75.96 479.903 75.96C475.167 75.96 471.039 75.256 467.519 73.848C463.999 72.44 461.087 70.52 458.783 68.088C456.479 65.592 454.751 62.648 453.599 59.256C452.511 55.864 451.967 52.216 451.967 48.312C451.967 44.536 452.575 40.952 453.791 37.56C455.071 34.104 456.863 31.096 459.167 28.536C461.535 25.976 464.447 23.96 467.903 22.488C471.359 20.952 475.295 20.184 479.711 20.184C484.127 20.184 488.031 20.856 491.423 22.2C494.815 23.544 497.631 25.368 499.871 27.672C502.111 29.976 503.775 32.728 504.863 35.928C506.015 39.128 506.591 42.584 506.591 46.296V48.216H461.087C461.087 53.848 462.591 58.488 465.599 62.136C468.671 65.72 473.311 67.512 479.519 67.512C484.575 67.512 488.511 66.392 491.327 64.152C494.207 61.848 496.159 58.68 497.183 54.648L506.303 56.952ZM479.807 28.632C473.919 28.632 469.343 30.424 466.079 34.008C462.879 37.592 461.215 42.072 461.087 47.448H497.567V46.68C497.567 41.304 496.095 36.952 493.151 33.624C490.207 30.296 485.759 28.632 479.807 28.632ZM538.479 67.704C543.087 67.704 546.479 66.712 548.655 64.728C550.831 62.744 551.919 60.248 551.919 57.24C551.919 54.296 550.671 52.12 548.175 50.712C545.743 49.304 541.615 48.44 535.791 48.12C531.119 47.864 527.247 47.448 524.175 46.872C521.103 46.296 518.671 45.528 516.879 44.568C515.087 43.544 513.807 42.328 513.039 40.92C512.335 39.448 511.983 37.752 511.983 35.832C511.983 31.224 513.839 27.416 517.551 24.408C521.327 21.4 526.703 19.896 533.679 19.896C539.823 19.896 545.103 20.856 549.519 22.776C553.999 24.632 557.935 27.256 561.327 30.648L554.607 37.944C552.047 34.808 549.135 32.408 545.871 30.744C542.671 29.016 538.735 28.152 534.063 28.152C529.391 28.152 525.999 29.144 523.887 31.128C521.839 33.048 520.815 35.352 520.815 38.04C520.815 40.664 521.903 42.84 524.079 44.568C526.255 46.296 530.223 47.288 535.983 47.544C544.943 47.992 551.279 49.144 554.991 51C558.767 52.856 560.655 55.992 560.655 60.408C560.655 62.456 560.207 64.44 559.311 66.36C558.479 68.216 557.135 69.88 555.279 71.352C553.423 72.76 551.023 73.912 548.079 74.808C545.135 75.64 541.615 76.056 537.519 76.056C530.863 76.056 525.327 75.096 520.911 73.176C516.495 71.192 512.495 68.568 508.911 65.304L516.399 57.432C518.959 60.376 521.935 62.84 525.327 64.824C528.719 66.744 533.103 67.704 538.479 67.704ZM579.427 14.328V15.096H564.259V14.328H579.427ZM576.547 21.24V75H567.139V21.24H576.547ZM585.988 84.216L594.628 79.512C596.164 82.328 598.436 84.536 601.444 86.136C604.516 87.8 608.068 88.632 612.1 88.632C617.86 88.632 622.34 87.064 625.54 83.928C628.74 80.856 630.34 75.448 630.34 67.704V61.944L631.012 52.152C629.988 59.192 627.652 64.792 624.004 68.952C620.356 73.112 615.236 75.192 608.644 75.192C605.188 75.192 601.924 74.616 598.852 73.464C595.844 72.248 593.22 70.488 590.98 68.184C588.804 65.88 587.044 63.032 585.7 59.64C584.42 56.184 583.78 52.248 583.78 47.832C583.78 43.416 584.516 39.512 585.988 36.12C587.46 32.664 589.348 29.784 591.652 27.48C594.02 25.112 596.708 23.32 599.716 22.104C602.788 20.888 605.892 20.28 609.028 20.28C614.788 20.28 619.62 22.2 623.524 26.04C627.428 29.88 629.924 35.512 631.012 42.936L630.531 35.064V21.24H639.748V68.28C639.748 77.816 637.348 84.984 632.548 89.784C627.812 94.648 620.996 97.08 612.1 97.08C606.148 97.08 600.9 95.928 596.356 93.624C591.812 91.384 588.356 88.248 585.988 84.216ZM611.524 67.032C617.668 67.032 622.436 65.272 625.828 61.752C629.22 58.168 630.916 53.56 630.916 47.928C630.916 42.36 629.316 37.752 626.116 34.104C622.916 30.392 618.18 28.536 611.908 28.536C609.284 28.536 606.788 28.984 604.42 29.88C602.116 30.712 600.1 31.96 598.372 33.624C596.708 35.224 595.364 37.24 594.34 39.672C593.38 42.04 592.9 44.728 592.9 47.736C592.9 53.688 594.564 58.392 597.892 61.848C601.22 65.304 605.764 67.032 611.524 67.032ZM649.077 75V21.24H658.293V43.512C659.509 35.704 662.037 29.88 665.877 26.04C669.717 22.136 674.421 20.184 679.989 20.184C686.773 20.184 691.861 22.168 695.253 26.136C698.709 30.04 700.437 35.288 700.437 41.88V75H691.125V44.664C691.125 39.544 689.909 35.48 687.477 32.472C685.109 29.464 681.141 27.96 675.573 27.96C671.093 27.96 667.381 29.304 664.437 31.992C661.493 34.616 659.445 38.904 658.293 44.856V75H649.077ZM761.678 56.952C760.142 62.584 757.166 67.16 752.75 70.68C748.334 74.2 742.51 75.96 735.278 75.96C730.542 75.96 726.414 75.256 722.894 73.848C719.374 72.44 716.462 70.52 714.158 68.088C711.854 65.592 710.126 62.648 708.974 59.256C707.886 55.864 707.342 52.216 707.342 48.312C707.342 44.536 707.95 40.952 709.166 37.56C710.446 34.104 712.238 31.096 714.542 28.536C716.91 25.976 719.822 23.96 723.278 22.488C726.734 20.952 730.67 20.184 735.086 20.184C739.502 20.184 743.406 20.856 746.798 22.2C750.19 23.544 753.006 25.368 755.246 27.672C757.486 29.976 759.15 32.728 760.238 35.928C761.39 39.128 761.966 42.584 761.966 46.296V48.216H716.462C716.462 53.848 717.966 58.488 720.974 62.136C724.046 65.72 728.686 67.512 734.894 67.512C739.95 67.512 743.886 66.392 746.702 64.152C749.582 61.848 751.534 58.68 752.558 54.648L761.678 56.952ZM735.182 28.632C729.294 28.632 724.718 30.424 721.454 34.008C718.254 37.592 716.59 42.072 716.462 47.448H752.942V46.68C752.942 41.304 751.47 36.952 748.526 33.624C745.582 30.296 741.134 28.632 735.182 28.632ZM795.189 20.472C797.429 20.472 799.509 20.792 801.429 21.432C803.349 22.008 805.013 22.776 806.421 23.736L802.677 32.952C801.077 31.608 799.445 30.648 797.781 30.072C796.117 29.432 794.101 29.112 791.733 29.112C788.597 29.112 785.717 30.168 783.093 32.28C780.533 34.328 778.933 38.072 778.293 43.512V75H769.077V21.24H778.293V42.456C778.933 34.968 780.565 29.432 783.189 25.848C785.813 22.264 789.813 20.472 795.189 20.472Z" fill="black"/>
</svg>
