<svg width="319" height="30" viewBox="0 0 319 30" fill="none" xmlns="http://www.w3.org/2000/svg">
<path d="M13.44 2.20803C15.5947 2.20803 17.5147 2.59203 19.2 3.36003C20.8854 4.1067 22.2934 5.12003 23.424 6.40003C24.5547 7.6587 25.408 9.12003 25.984 10.784C26.5814 12.448 26.88 14.1867 26.88 16C26.88 17.8134 26.5814 19.552 25.984 21.216C25.408 22.8587 24.5547 24.2987 23.424 25.536C22.2934 26.7734 20.8854 27.7547 19.2 28.48C17.5147 29.2267 15.5947 29.6 13.44 29.6C11.2854 29.6 9.36536 29.2267 7.68002 28.48C5.99469 27.7547 4.58669 26.7734 3.45602 25.536C2.32536 24.2987 1.46136 22.8587 0.864023 21.216C0.288023 19.552 2.34842e-05 17.8134 2.34842e-05 16C2.34842e-05 14.1867 0.288023 12.448 0.864023 10.784C1.46136 9.12003 2.32536 7.6587 3.45602 6.40003C4.58669 5.12003 5.99469 4.1067 7.68002 3.36003C9.36536 2.59203 11.2854 2.20803 13.44 2.20803ZM13.44 26.816C15.0614 26.816 16.5227 26.5387 17.824 25.984C19.1467 25.4507 20.256 24.704 21.152 23.744C22.0694 22.7627 22.7627 21.6107 23.232 20.288C23.7227 18.944 23.968 17.4827 23.968 15.904C23.968 14.3254 23.7227 12.8747 23.232 11.552C22.7627 10.208 22.0694 9.05603 21.152 8.09603C20.256 7.1147 19.1467 6.35736 17.824 5.82403C16.5227 5.26936 15.0614 4.99203 13.44 4.99203C11.8187 4.99203 10.3467 5.26936 9.02402 5.82403C7.72269 6.3787 6.61336 7.1467 5.69602 8.12803C4.80002 9.08803 4.10669 10.24 3.61602 11.584C3.14669 12.9067 2.91202 14.3467 2.91202 15.904C2.91202 17.4614 3.14669 18.912 3.61602 20.256C4.10669 21.5787 4.80002 22.7307 5.69602 23.712C6.61336 24.672 7.72269 25.4294 9.02402 25.984C10.3467 26.5387 11.8187 26.816 13.44 26.816ZM20.096 14.112L19.776 14.176C19.4987 12.6614 18.8587 11.392 17.856 10.368C16.8747 9.34403 15.4454 8.83203 13.568 8.83203C12.5867 8.83203 11.7014 9.02403 10.912 9.40803C10.144 9.7707 9.48269 10.2614 8.92802 10.88C8.39469 11.4987 7.97869 12.2347 7.68002 13.088C7.40269 13.92 7.26402 14.7947 7.26402 15.712C7.26402 16.6507 7.39202 17.536 7.64802 18.368C7.90402 19.2 8.29869 19.9254 8.83202 20.544C9.36536 21.1627 10.0374 21.6534 10.848 22.016C11.68 22.3787 12.6614 22.56 13.792 22.56C14.6667 22.56 15.456 22.4107 16.16 22.112C16.864 21.8134 17.4614 21.4187 17.952 20.928C18.4427 20.416 18.8374 19.8187 19.136 19.136C19.456 18.432 19.68 17.696 19.808 16.928L20.128 16.992C19.872 18.6347 19.2107 20.0214 18.144 21.152C17.0774 22.2614 15.6267 22.816 13.792 22.816C12.6187 22.816 11.5947 22.6347 10.72 22.272C9.86669 21.888 9.15202 21.376 8.57602 20.736C8.02136 20.0747 7.60536 19.3174 7.32802 18.464C7.07202 17.5894 6.94402 16.672 6.94402 15.712C6.94402 14.752 7.09336 13.8454 7.39202 12.992C7.71202 12.1174 8.14936 11.36 8.70402 10.72C9.28002 10.0587 9.97336 9.53603 10.784 9.15203C11.616 8.76803 12.544 8.57603 13.568 8.57603C15.488 8.57603 16.9814 9.12003 18.048 10.208C19.136 11.2747 19.8187 12.576 20.096 14.112ZM35.5468 24.832V22.016C37.3601 20.736 38.9494 19.584 40.3148 18.56C41.6801 17.536 42.8534 16.608 43.8348 15.776C45.6268 14.2614 46.8961 12.96 47.6428 11.872C48.4108 10.7627 48.7948 9.62136 48.7948 8.44803C48.7948 6.9547 48.3468 5.81336 47.4508 5.02403C46.5548 4.2347 45.3174 3.84003 43.7388 3.84003C42.2668 3.84003 41.0401 4.2027 40.0588 4.92803C39.0988 5.63203 38.3841 6.5707 37.9148 7.74403L35.1628 6.40003C35.9521 4.82136 37.0828 3.55203 38.5548 2.59203C40.0268 1.63203 41.7548 1.15203 43.7388 1.15203C45.0828 1.15203 46.2561 1.33336 47.2588 1.69603C48.2828 2.0587 49.1254 2.54936 49.7868 3.16803C50.4694 3.76536 50.9814 4.4907 51.3228 5.34403C51.6641 6.17603 51.8348 7.06136 51.8348 8.00003C51.8348 9.66403 51.2908 11.1787 50.2028 12.544C49.1148 13.888 47.3014 15.36 44.7628 16.96C43.6108 17.6854 42.2774 18.464 40.7628 19.296C39.2694 20.1067 37.5948 20.992 35.7388 21.952H51.8668V24.832H35.5468ZM62.6735 25.152C61.3295 25.152 60.0922 24.9494 58.9615 24.544C57.8522 24.1174 56.9029 23.456 56.1135 22.56C55.3242 21.6427 54.7055 20.448 54.2575 18.976C53.8309 17.4827 53.6175 15.68 53.6175 13.568V12.48C53.6175 10.4747 53.8522 8.75736 54.3215 7.32803C54.7909 5.87736 55.4202 4.70403 56.2095 3.80803C57.0202 2.8907 57.9802 2.2187 59.0895 1.79203C60.1989 1.36536 61.3935 1.15203 62.6735 1.15203C63.9749 1.15203 65.1802 1.37603 66.2895 1.82403C67.3989 2.2507 68.3482 2.9227 69.1375 3.84003C69.9482 4.73603 70.5775 5.90936 71.0255 7.36003C71.4949 8.78936 71.7295 10.496 71.7295 12.48V13.568C71.7295 15.68 71.5055 17.4827 71.0575 18.976C70.6095 20.448 69.9909 21.6427 69.2015 22.56C68.4122 23.456 67.4522 24.1174 66.3215 24.544C65.2122 24.9494 63.9962 25.152 62.6735 25.152ZM62.6735 22.272C64.5295 22.272 65.9909 21.6427 67.0575 20.384C68.1455 19.104 68.6895 16.8107 68.6895 13.504V12.544C68.6895 10.9227 68.5402 9.56803 68.2415 8.48003C67.9642 7.3707 67.5589 6.48536 67.0255 5.82403C66.5135 5.1627 65.8842 4.69336 65.1375 4.41603C64.4122 4.1387 63.6015 4.00003 62.7055 4.00003C60.8922 4.00003 59.4309 4.62936 58.3215 5.88803C57.2122 7.1467 56.6575 9.36536 56.6575 12.544V13.504C56.6575 16.7894 57.1909 19.072 58.2575 20.352C59.3455 21.632 60.8175 22.272 62.6735 22.272ZM73.0155 24.832V22.016C74.8289 20.736 76.4182 19.584 77.7835 18.56C79.1489 17.536 80.3222 16.608 81.3035 15.776C83.0955 14.2614 84.3649 12.96 85.1115 11.872C85.8795 10.7627 86.2635 9.62136 86.2635 8.44803C86.2635 6.9547 85.8155 5.81336 84.9195 5.02403C84.0235 4.2347 82.7862 3.84003 81.2075 3.84003C79.7355 3.84003 78.5089 4.2027 77.5275 4.92803C76.5675 5.63203 75.8529 6.5707 75.3835 7.74403L72.6315 6.40003C73.4209 4.82136 74.5515 3.55203 76.0235 2.59203C77.4955 1.63203 79.2235 1.15203 81.2075 1.15203C82.5515 1.15203 83.7249 1.33336 84.7275 1.69603C85.7515 2.0587 86.5942 2.54936 87.2555 3.16803C87.9382 3.76536 88.4502 4.4907 88.7915 5.34403C89.1329 6.17603 89.3035 7.06136 89.3035 8.00003C89.3035 9.66403 88.7595 11.1787 87.6715 12.544C86.5835 13.888 84.7702 15.36 82.2315 16.96C81.0795 17.6854 79.7462 18.464 78.2315 19.296C76.7382 20.1067 75.0635 20.992 73.2075 21.952H89.3355V24.832H73.0155ZM97.1878 24.832V2.75203C97.0598 5.0347 96.5371 6.8587 95.6198 8.22403C94.7238 9.56803 93.3798 10.24 91.5878 10.24H91.2358V7.04003H91.3958C93.2304 7.04003 94.6384 6.59203 95.6198 5.69603C96.6011 4.80003 97.1344 3.39203 97.2198 1.47203H100.196V24.832H97.1878ZM110.569 24.832V1.47203H113.705V24.832H110.569ZM125.614 6.65603C126.361 6.65603 127.054 6.7627 127.694 6.97603C128.334 7.16803 128.889 7.42403 129.358 7.74403L128.11 10.816C127.577 10.368 127.033 10.048 126.478 9.85603C125.923 9.6427 125.251 9.53603 124.462 9.53603C123.417 9.53603 122.457 9.88803 121.582 10.592C120.729 11.2747 120.195 12.5227 119.982 14.336V24.832H116.91V6.91203H119.982V13.984C120.195 11.488 120.739 9.6427 121.614 8.44803C122.489 7.25336 123.822 6.65603 125.614 6.65603ZM134.003 24.832V9.72803H130.323V6.91203H134.003V5.95203C134.003 3.73336 134.408 2.1867 135.219 1.31203C136.051 0.437364 137.544 3.05176e-05 139.699 3.05176e-05H141.619V2.78403H139.667C138.621 2.78403 137.907 2.99736 137.523 3.42403C137.139 3.8507 136.947 4.6507 136.947 5.82403V6.91203H141.619V9.72803H136.947V24.832H134.003ZM147.421 25.216C145.565 25.216 144.221 24.8107 143.389 24C142.557 23.1894 142.141 22.2294 142.141 21.12C142.141 20.352 142.301 19.7014 142.621 19.168C142.941 18.6134 143.41 18.1334 144.029 17.728C144.562 17.3654 145.149 17.0667 145.789 16.832C146.45 16.5974 147.175 16.3734 147.965 16.16C148.498 16.0107 149.074 15.872 149.693 15.744C150.311 15.616 150.909 15.488 151.485 15.36C152.658 15.1254 153.693 14.848 154.589 14.528C155.506 14.208 155.965 13.7174 155.965 13.056C155.965 11.9894 155.613 11.0827 154.909 10.336C154.205 9.58936 152.978 9.21603 151.229 9.21603C149.757 9.21603 148.498 9.53603 147.453 10.176C146.429 10.7947 145.586 11.7974 144.925 13.184L142.205 11.648C143.186 9.98403 144.423 8.72536 145.917 7.87203C147.431 6.99736 149.223 6.56003 151.293 6.56003C153.81 6.56003 155.698 7.13603 156.957 8.28803C158.215 9.44003 158.845 11.04 158.845 13.088V20.768C158.845 21.3867 158.941 21.8027 159.133 22.016C159.346 22.2294 159.687 22.336 160.157 22.336C160.434 22.336 160.658 22.3147 160.829 22.272C160.999 22.2294 161.138 22.1654 161.245 22.08V24.768C161.031 24.8747 160.733 24.96 160.349 25.024C159.965 25.1094 159.57 25.152 159.165 25.152C158.077 25.152 157.245 24.8747 156.669 24.32C156.114 23.744 155.837 22.784 155.837 21.44C155.837 21.2907 155.837 21.0347 155.837 20.672C155.858 20.288 155.869 19.8827 155.869 19.456C155.869 19.0294 155.869 18.6134 155.869 18.208C155.89 17.8027 155.901 17.472 155.901 17.216C155.623 18.304 155.218 19.3387 154.685 20.32C154.151 21.28 153.522 22.1227 152.797 22.848C152.071 23.5734 151.25 24.1494 150.333 24.576C149.415 25.0027 148.445 25.216 147.421 25.216ZM151.069 15.744C149.277 16.0854 147.858 16.5227 146.813 17.056C145.767 17.568 145.245 18.4747 145.245 19.776C145.245 20.608 145.575 21.2907 146.237 21.824C146.898 22.336 147.901 22.592 149.245 22.592C150.845 22.592 152.263 22.1014 153.501 21.12C154.738 20.1174 155.559 18.528 155.965 16.352V13.76C155.666 14.2934 155.058 14.6987 154.141 14.976C153.245 15.2534 152.221 15.5094 151.069 15.744ZM163.004 24.832V6.91203H166.076V14.336C166.481 11.7334 167.324 9.79203 168.604 8.51203C169.884 7.2107 171.452 6.56003 173.308 6.56003C175.569 6.56003 177.265 7.22136 178.396 8.54403C179.548 9.84536 180.124 11.5947 180.124 13.792V24.832H177.02V14.72C177.02 13.0134 176.614 11.6587 175.804 10.656C175.014 9.65336 173.692 9.15203 171.836 9.15203C170.342 9.15203 169.105 9.60003 168.124 10.496C167.142 11.3707 166.46 12.8 166.076 14.784V24.832H163.004ZM208.315 1.47203H211.291V24.832H208.187V2.65603L205.659 10.176L200.699 24.832H200.475L195.483 10.176L192.923 2.62403V24.832H189.819V1.47203H192.827L198.427 18.016L200.603 24.352L202.715 18.016L208.315 1.47203ZM218.921 25.216C217.065 25.216 215.721 24.8107 214.889 24C214.057 23.1894 213.641 22.2294 213.641 21.12C213.641 20.352 213.801 19.7014 214.121 19.168C214.441 18.6134 214.91 18.1334 215.529 17.728C216.062 17.3654 216.649 17.0667 217.289 16.832C217.95 16.5974 218.675 16.3734 219.465 16.16C219.998 16.0107 220.574 15.872 221.193 15.744C221.811 15.616 222.409 15.488 222.985 15.36C224.158 15.1254 225.193 14.848 226.089 14.528C227.006 14.208 227.465 13.7174 227.465 13.056C227.465 11.9894 227.113 11.0827 226.409 10.336C225.705 9.58936 224.478 9.21603 222.729 9.21603C221.257 9.21603 219.998 9.53603 218.953 10.176C217.929 10.7947 217.086 11.7974 216.425 13.184L213.705 11.648C214.686 9.98403 215.923 8.72536 217.417 7.87203C218.931 6.99736 220.723 6.56003 222.793 6.56003C225.31 6.56003 227.198 7.13603 228.457 8.28803C229.715 9.44003 230.345 11.04 230.345 13.088V20.768C230.345 21.3867 230.441 21.8027 230.633 22.016C230.846 22.2294 231.187 22.336 231.657 22.336C231.934 22.336 232.158 22.3147 232.329 22.272C232.499 22.2294 232.638 22.1654 232.745 22.08V24.768C232.531 24.8747 232.233 24.96 231.849 25.024C231.465 25.1094 231.07 25.152 230.665 25.152C229.577 25.152 228.745 24.8747 228.169 24.32C227.614 23.744 227.337 22.784 227.337 21.44C227.337 21.2907 227.337 21.0347 227.337 20.672C227.358 20.288 227.369 19.8827 227.369 19.456C227.369 19.0294 227.369 18.6134 227.369 18.208C227.39 17.8027 227.401 17.472 227.401 17.216C227.123 18.304 226.718 19.3387 226.185 20.32C225.651 21.28 225.022 22.1227 224.297 22.848C223.571 23.5734 222.75 24.1494 221.833 24.576C220.915 25.0027 219.945 25.216 218.921 25.216ZM222.569 15.744C220.777 16.0854 219.358 16.5227 218.313 17.056C217.267 17.568 216.745 18.4747 216.745 19.776C216.745 20.608 217.075 21.2907 217.737 21.824C218.398 22.336 219.401 22.592 220.745 22.592C222.345 22.592 223.763 22.1014 225.001 21.12C226.238 20.1174 227.059 18.528 227.465 16.352V13.76C227.166 14.2934 226.558 14.6987 225.641 14.976C224.745 15.2534 223.721 15.5094 222.569 15.744ZM250.65 6.91203V24.832H247.578V17.44C247.3 20.0214 246.532 21.9627 245.274 23.264C244.036 24.544 242.479 25.184 240.602 25.184C238.34 25.184 236.623 24.512 235.45 23.168C234.298 21.8027 233.722 19.9894 233.722 17.728V6.91203H236.826V16.832C236.826 18.5814 237.231 19.9787 238.042 21.024C238.852 22.0694 240.196 22.592 242.074 22.592C243.61 22.592 244.858 22.1227 245.818 21.184C246.778 20.2454 247.364 18.816 247.578 16.896V6.91203H250.65ZM256.826 3.05176e-05V24.832H253.754V3.05176e-05H256.826ZM264.389 25.216C262.533 25.216 261.189 24.8107 260.357 24C259.525 23.1894 259.109 22.2294 259.109 21.12C259.109 20.352 259.269 19.7014 259.589 19.168C259.909 18.6134 260.379 18.1334 260.997 17.728C261.531 17.3654 262.117 17.0667 262.757 16.832C263.419 16.5974 264.144 16.3734 264.933 16.16C265.467 16.0107 266.043 15.872 266.661 15.744C267.28 15.616 267.877 15.488 268.453 15.36C269.627 15.1254 270.661 14.848 271.557 14.528C272.475 14.208 272.933 13.7174 272.933 13.056C272.933 11.9894 272.581 11.0827 271.877 10.336C271.173 9.58936 269.947 9.21603 268.197 9.21603C266.725 9.21603 265.467 9.53603 264.421 10.176C263.397 10.7947 262.555 11.7974 261.893 13.184L259.173 11.648C260.155 9.98403 261.392 8.72536 262.885 7.87203C264.4 6.99736 266.192 6.56003 268.261 6.56003C270.779 6.56003 272.667 7.13603 273.925 8.28803C275.184 9.44003 275.813 11.04 275.813 13.088V20.768C275.813 21.3867 275.909 21.8027 276.101 22.016C276.315 22.2294 276.656 22.336 277.125 22.336C277.403 22.336 277.627 22.3147 277.797 22.272C277.968 22.2294 278.107 22.1654 278.213 22.08V24.768C278 24.8747 277.701 24.96 277.317 25.024C276.933 25.1094 276.539 25.152 276.133 25.152C275.045 25.152 274.213 24.8747 273.637 24.32C273.083 23.744 272.805 22.784 272.805 21.44C272.805 21.2907 272.805 21.0347 272.805 20.672C272.827 20.288 272.837 19.8827 272.837 19.456C272.837 19.0294 272.837 18.6134 272.837 18.208C272.859 17.8027 272.869 17.472 272.869 17.216C272.592 18.304 272.187 19.3387 271.653 20.32C271.12 21.28 270.491 22.1227 269.765 22.848C269.04 23.5734 268.219 24.1494 267.301 24.576C266.384 25.0027 265.413 25.216 264.389 25.216ZM268.037 15.744C266.245 16.0854 264.827 16.5227 263.781 17.056C262.736 17.568 262.213 18.4747 262.213 19.776C262.213 20.608 262.544 21.2907 263.205 21.824C263.867 22.336 264.869 22.592 266.213 22.592C267.813 22.592 269.232 22.1014 270.469 21.12C271.707 20.1174 272.528 18.528 272.933 16.352V13.76C272.635 14.2934 272.027 14.6987 271.109 14.976C270.213 15.2534 269.189 15.5094 268.037 15.744ZM279.973 24.832V6.91203H283.045V14.336C283.45 11.7334 284.293 9.79203 285.573 8.51203C286.853 7.2107 288.421 6.56003 290.277 6.56003C292.538 6.56003 294.234 7.22136 295.365 8.54403C296.517 9.84536 297.093 11.5947 297.093 13.792V24.832H293.989V14.72C293.989 13.0134 293.583 11.6587 292.773 10.656C291.983 9.65336 290.661 9.15203 288.805 9.15203C287.311 9.15203 286.074 9.60003 285.093 10.496C284.111 11.3707 283.429 12.8 283.045 14.784V24.832H279.973ZM304.546 25.216C302.69 25.216 301.346 24.8107 300.514 24C299.682 23.1894 299.266 22.2294 299.266 21.12C299.266 20.352 299.426 19.7014 299.746 19.168C300.066 18.6134 300.535 18.1334 301.154 17.728C301.687 17.3654 302.274 17.0667 302.914 16.832C303.575 16.5974 304.3 16.3734 305.09 16.16C305.623 16.0107 306.199 15.872 306.818 15.744C307.436 15.616 308.034 15.488 308.61 15.36C309.783 15.1254 310.818 14.848 311.714 14.528C312.631 14.208 313.09 13.7174 313.09 13.056C313.09 11.9894 312.738 11.0827 312.034 10.336C311.33 9.58936 310.103 9.21603 308.354 9.21603C306.882 9.21603 305.623 9.53603 304.578 10.176C303.554 10.7947 302.711 11.7974 302.05 13.184L299.33 11.648C300.311 9.98403 301.548 8.72536 303.042 7.87203C304.556 6.99736 306.348 6.56003 308.418 6.56003C310.935 6.56003 312.823 7.13603 314.082 8.28803C315.34 9.44003 315.97 11.04 315.97 13.088V20.768C315.97 21.3867 316.066 21.8027 316.258 22.016C316.471 22.2294 316.812 22.336 317.282 22.336C317.559 22.336 317.783 22.3147 317.954 22.272C318.124 22.2294 318.263 22.1654 318.37 22.08V24.768C318.156 24.8747 317.858 24.96 317.474 25.024C317.09 25.1094 316.695 25.152 316.29 25.152C315.202 25.152 314.37 24.8747 313.794 24.32C313.239 23.744 312.962 22.784 312.962 21.44C312.962 21.2907 312.962 21.0347 312.962 20.672C312.983 20.288 312.994 19.8827 312.994 19.456C312.994 19.0294 312.994 18.6134 312.994 18.208C313.015 17.8027 313.026 17.472 313.026 17.216C312.748 18.304 312.343 19.3387 311.81 20.32C311.276 21.28 310.647 22.1227 309.922 22.848C309.196 23.5734 308.375 24.1494 307.458 24.576C306.54 25.0027 305.57 25.216 304.546 25.216ZM308.194 15.744C306.402 16.0854 304.983 16.5227 303.938 17.056C302.892 17.568 302.37 18.4747 302.37 19.776C302.37 20.608 302.7 21.2907 303.362 21.824C304.023 22.336 305.026 22.592 306.37 22.592C307.97 22.592 309.388 22.1014 310.626 21.12C311.863 20.1174 312.684 18.528 313.09 16.352V13.76C312.791 14.2934 312.183 14.6987 311.266 14.976C310.37 15.2534 309.346 15.5094 308.194 15.744Z" fill="black"/>
</svg>
