<svg width="80" height="97" viewBox="0 0 80 97" fill="none" xmlns="http://www.w3.org/2000/svg">
<path d="M78.7415 95.256L66.5815 83.736C63.0828 87.576 58.6455 90.648 53.2695 92.952C47.9788 95.1707 41.6642 96.28 34.3255 96.28C28.6082 96.28 23.5735 95.5973 19.2215 94.232C14.9548 92.7813 11.3708 90.9467 8.4695 88.728C5.6535 86.424 3.52017 83.8213 2.0695 80.92C0.704167 77.9333 0.0215001 74.904 0.0215001 71.832C0.0215001 66.8827 1.21617 62.744 3.6055 59.416C6.08017 56.0027 9.40817 53.144 13.5895 50.84C15.5522 49.7307 17.6855 48.7493 19.9895 47.896C22.3788 47.0427 24.7682 46.232 27.1575 45.464C23.9148 42.2213 21.3122 39.3627 19.3495 36.888C17.4722 34.4133 16.0215 32.2373 14.9975 30.36C13.9735 28.4827 13.2908 26.8187 12.9495 25.368C12.6935 23.9173 12.5655 22.552 12.5655 21.272C12.5655 14.616 14.8695 9.45333 19.4775 5.784C24.0855 2.11466 29.8882 0.279999 36.8855 0.279999C40.2988 0.279999 43.4988 0.749331 46.4855 1.688C49.5575 2.62666 52.2028 3.99199 54.4215 5.784C56.7255 7.49066 58.5175 9.66666 59.7975 12.312C61.0775 14.872 61.7175 17.8587 61.7175 21.272C61.7175 27.16 59.6695 31.8107 55.5735 35.224C51.4775 38.552 44.9922 41.4533 36.1175 43.928C34.9228 44.2693 33.7282 44.6107 32.5335 44.952C31.3388 45.2933 30.1868 45.6347 29.0775 45.976L59.1575 75.416C62.2295 71.6613 64.2775 67.0533 65.3015 61.592C66.3255 56.0453 66.4962 50.0293 65.8135 43.544L78.3575 46.616C78.5282 53.272 77.7602 59.8 76.0535 66.2C74.3468 72.6 71.4028 78.1893 67.2215 82.968L79.3815 94.488L78.7415 95.256ZM18.9655 27.16C18.9655 30.8293 19.8188 34.072 21.5255 36.888C23.2322 39.6187 25.4935 42.3493 28.3095 45.08C29.1628 44.824 30.0162 44.568 30.8695 44.312C31.8082 44.056 32.7042 43.8 33.5575 43.544C40.7255 41.5813 45.8028 39.3627 48.7895 36.888C51.7762 34.328 53.2695 30.9147 53.2695 26.648C53.2695 21.9547 51.6482 18.2427 48.4055 15.512C45.2482 12.7813 41.1522 11.416 36.1175 11.416C31.1682 11.416 27.0722 12.824 23.8295 15.64C20.5868 18.456 18.9655 22.296 18.9655 27.16ZM10.0055 65.816C10.0055 68.8027 10.6455 71.5333 11.9255 74.008C13.2908 76.3973 15.0828 78.4453 17.3015 80.152C19.5202 81.7733 22.1228 83.0533 25.1095 83.992C28.1815 84.8453 31.4242 85.272 34.8375 85.272C40.2135 85.272 44.8215 84.504 48.6615 82.968C52.5868 81.3467 55.8295 79.128 58.3895 76.312L27.9255 46.232C25.5362 46.9147 23.2748 47.768 21.1415 48.792C19.0082 49.816 17.1735 51.0107 15.6375 52.376C13.8455 53.912 12.4375 55.7893 11.4135 58.008C10.4748 60.2267 10.0055 62.8293 10.0055 65.816Z" fill="#838383"/>
</svg>
