<svg width="104" height="104" viewBox="0 0 104 104" fill="none" xmlns="http://www.w3.org/2000/svg">
<g clip-path="url(#clip0_4_5)">
<rect x="1" y="1" width="102" height="102" rx="5" fill="white"/>
<path d="M0.783539 52V103.216H52H103.217V52V0.783493H52H0.783539V52ZM30.8454 32.2371V46.433H27.7835H24.7217V32.2371V18.0412H27.7835H30.8454V32.2371ZM58.6248 23.4412C59.5155 26.4474 60.8516 30.901 61.5753 33.2948L62.8557 37.7484L64.6372 31.9031C65.5835 28.7299 66.9196 24.2763 67.5877 22.0495L68.7567 18.0412H72.4866H76.2722L78.8887 31.5134C80.3361 38.9732 81.5052 45.3752 81.5052 45.7093C81.5052 46.2103 80.5031 46.433 78.2207 46.433C74.4351 46.433 74.9918 47.5464 73.1547 36.4124C72.431 32.2928 71.7073 28.7299 71.5402 28.5072C71.3176 28.2289 70.0372 32.1258 68.6454 37.1361L66.1402 46.1546L62.967 46.3216L59.8495 46.4887L58.7361 42.7031C58.1238 40.6433 56.9547 36.468 56.1196 33.4618C55.2846 30.5113 54.3939 28.2289 54.2268 28.4515C54.0042 28.7299 53.2805 32.4041 52.6124 36.6907C50.9423 47.3237 51.3877 46.433 47.4908 46.433C45.7093 46.433 44.2062 46.266 44.2062 45.9876C44.2062 45.7649 45.3753 39.4185 46.8227 31.7917L49.4392 18.0412H53.2248H56.9547L58.6248 23.4412ZM32.1815 69.4247C33.6846 74.5464 35.132 78.5546 35.3547 78.332C35.5774 78.0536 36.9691 73.8227 38.4165 68.8124L41.033 59.7938H44.8186H48.6042L48.9939 61.8536C49.2165 63.0227 50.4413 69.3691 51.7217 75.9381L54.0598 87.9072L50.7196 88.0742C48.9382 88.1856 47.3238 88.1299 47.2124 88.0186C47.1011 87.9072 46.3217 83.6763 45.4866 78.5546C44.6516 73.4887 43.8165 69.5917 43.5939 69.9258C43.3712 70.2598 42.1464 74.4907 40.8103 79.334L38.3609 88.1856H35.1877C32.6825 88.1856 31.9588 88.0186 31.7361 87.1835C31.6248 86.6825 30.4 82.3959 29.1196 77.6639C27.7835 72.9876 26.6145 69.4247 26.5031 69.7031C26.3918 70.0371 25.6124 74.268 24.7774 79.1113L23.2743 87.9072L19.8227 88.0742C17.9299 88.1856 16.3712 88.0742 16.3712 87.8515C16.3712 87.2948 21.4371 61.2969 21.6598 60.4618C21.8825 59.9608 22.9959 59.7938 25.6681 59.9051L29.398 60.0722L32.1815 69.4247ZM82.0619 60.9629C84.8454 62.5216 86.5155 65.5835 86.5155 69.0907C86.5155 72.3196 85.0681 74.9361 82.1732 76.8289L80.3918 78.0536L82.7856 81.0598C84.1217 82.6742 85.9031 84.9567 86.7382 86.0701L88.297 88.1856H84.3444H80.3918L77.2186 83.3423L73.9897 78.5546L73.8227 83.3423L73.6557 88.1856H70.3712H67.031V73.9897V59.7938H73.4887C79.0557 59.7938 80.2805 59.9608 82.0619 60.9629Z" fill="black"/>
<path d="M73.7113 68.9793V73.1546H75.4371C77.2186 73.1546 79.2783 72.3196 79.9464 71.2618C80.1691 70.9278 80.3917 69.8144 80.3917 68.8123C80.3917 66.3072 78.7216 64.8041 75.9381 64.8041H73.7113V68.9793Z" fill="black"/>
</g>
<defs>
<clipPath id="clip0_4_5">
<rect x="0.783539" y="0.783508" width="102.433" height="102.433" rx="5" fill="white"/>
</clipPath>
</defs>
</svg>
